<svg id="territory-labels" xmlns="http://www.w3.org/2000/svg" viewBox="0 0 20 20"><defs><style>.cls-1{font-size:0.2px;}.cls-1,.cls-2,.cls-3,.cls-4{font-family:TrajanPro-Bold, Trajan Pro;font-weight:700;}.cls-2{font-size:0.2px;}.cls-3{font-size:0.17px;}.cls-4{font-size:0.15px;}.cls-5{fill:none;}</style></defs><text class="cls-1" transform="matrix(0.97, 0.23, -0.23, 0.97, 8.32, 17.53)">T</text><text class="cls-1" transform="matrix(1, 0.04, -0.04, 1, 8.49, 17.57)">o</text><text class="cls-1" transform="matrix(0.99, -0.12, 0.12, 0.99, 8.66, 17.57)">r</text><text class="cls-1" transform="translate(8.82 17.55) rotate(-13.9)">i</text><text class="cls-1" transform="matrix(0.94, -0.33, 0.33, 0.94, 8.89, 17.53)">l</text><text class="cls-1" transform="translate(9.01 17.49) rotate(-26.51)">l</text><text class="cls-1" transform="translate(9.13 17.43) rotate(-36.03)">o</text><text class="cls-1" transform="translate(12.77 17.6) rotate(20.93)">g</text><text class="cls-1" transform="translate(12.99 17.67) rotate(11.66)">i</text><text class="cls-1" transform="translate(13.11 17.69) rotate(5.81)">s</text><text class="cls-1" transform="matrix(1, -0.06, 0.06, 1, 13.29, 17.71)">c</text><text class="cls-1" transform="translate(13.49 17.69) rotate(-11.97)">a</text><text class="cls-1" transform="translate(13.67 17.65) rotate(-21.08)">r</text><text class="cls-2" transform="translate(10.64 16.39) rotate(-42.59)">V</text><text class="cls-2" transform="matrix(0.65, -0.76, 0.76, 0.65, 10.76, 16.28)">I</text><text class="cls-2" transform="translate(10.82 16.2) rotate(-55.08)">S</text><text class="cls-2" transform="translate(10.92 16.06) rotate(-64.14)">C</text><text class="cls-2" transform="translate(10.99 15.91) rotate(-73.5)">O</text><text class="cls-2" transform="translate(11.05 15.71) rotate(-83.18)">T</text><text class="cls-2" transform="translate(11.07 15.55) rotate(-92.27)">H</text><text class="cls-2" transform="translate(11.05 15.34) rotate(-101.44)">A</text><text class="cls-2" transform="matrix(-0.33, -0.94, 0.94, -0.33, 11.02, 15.17)">L</text><text class="cls-2" transform="matrix(0.79, 0.61, -0.61, 0.79, 11.29, 15.33)">t</text><text class="cls-2" transform="matrix(0.73, 0.69, -0.69, 0.73, 11.43, 15.44)">e</text><text class="cls-2" transform="translate(11.56 15.57) rotate(48.53)">r</text><text class="cls-2" transform="matrix(0.59, 0.81, -0.81, 0.59, 11.67, 15.71)">i</text><text class="cls-2" transform="translate(11.75 15.82) rotate(61.79)">s</text><text class="cls-2" transform="translate(11.81 15.93) rotate(73.14)">y</text><text class="cls-1" transform="translate(10.85 14.24) rotate(18.03)">t</text><text class="cls-1" transform="translate(11.03 14.3) rotate(21.8)">e</text><text class="cls-1" transform="matrix(0.9, 0.43, -0.43, 0.9, 11.18, 14.36)">p</text><text class="cls-1" transform="translate(11.32 14.43) rotate(29.12)">o</text><text class="cls-1" transform="translate(11.52 14.55) rotate(33.66)">t</text><text class="cls-1" transform="translate(11.68 14.65) rotate(38.73)">h</text><text class="cls-1" transform="translate(11.85 14.8) rotate(44.35)">a</text><text class="cls-1" transform="matrix(0.64, 0.76, -0.76, 0.64, 11.98, 14.93)">l</text><text class="cls-1" transform="matrix(0.58, 0.82, -0.82, 0.58, 11.08, 16.39)">l</text><text class="cls-1" transform="translate(11.17 16.51) rotate(47.66)">o</text><text class="cls-1" transform="translate(11.33 16.68) rotate(39.39)">r</text><text class="cls-1" transform="translate(11.48 16.79) rotate(33.39)">e</text><text class="cls-1" transform="translate(11.61 16.88) rotate(26.98)">m</text><text class="cls-1" transform="translate(11.84 16.99) rotate(20.84)">i</text><text class="cls-1" transform="translate(11.96 17.04) rotate(16.15)">a</text><text class="cls-3" transform="translate(11.7 16.36) rotate(25.19)">i</text><text class="cls-3" transform="translate(11.81 16.41) rotate(17.14)">p</text><text class="cls-3" transform="translate(11.94 16.44) rotate(8.93)">s</text><text class="cls-3" transform="translate(12.08 16.46) rotate(-1.51)">u</text><text class="cls-3" transform="translate(12.26 16.46) rotate(-13.75)">m</text><text class="cls-3" transform="matrix(0.9, -0.44, 0.44, 0.9, 12.47, 16.4)">u</text><text class="cls-3" transform="matrix(0.83, -0.56, 0.56, 0.83, 12.6, 16.33)">s</text><text class="cls-1" transform="translate(10.5 16.79) rotate(57.8)">s</text><text class="cls-1" transform="translate(10.59 16.93) rotate(49.27)">e</text><text class="cls-1" transform="matrix(0.77, 0.64, -0.64, 0.77, 10.71, 17.06)">v</text><text class="cls-1" transform="translate(10.85 17.17) rotate(30.65)">a</text><text class="cls-1" transform="translate(11.01 17.26) rotate(21.6)">r</text><text class="cls-1" transform="matrix(0.97, 0.23, -0.23, 0.97, 11.17, 17.32)">o</text><text class="cls-4" transform="translate(11.66 17.23) rotate(89.3)">F</text><text class="cls-4" transform="matrix(0.16, 0.99, -0.99, 0.16, 11.66, 17.33)">l</text><text class="cls-4" transform="translate(11.68 17.44) rotate(72.01)">o</text><text class="cls-4" transform="translate(11.73 17.58) rotate(64.63)">r</text><text class="cls-4" transform="matrix(0.53, 0.85, -0.85, 0.53, 11.79, 17.7)">d</text><text class="cls-4" transform="translate(11.87 17.83) rotate(51.04)">a</text><text class="cls-4" transform="matrix(0.7, 0.71, -0.71, 0.7, 11.94, 17.92)">v</text><text class="cls-4" transform="matrix(0.77, 0.64, -0.64, 0.77, 12.03, 18)">i</text><text class="cls-4" transform="matrix(0.84, 0.54, -0.54, 0.84, 12.09, 18.05)">a</text><text class="cls-3" transform="translate(12.43 17.3) rotate(-13.99)">T</text><text class="cls-3" transform="translate(12.59 17.26) rotate(-23.31)">o</text><text class="cls-3" transform="translate(12.77 17.18) rotate(-32.4)">s</text><text class="cls-3" transform="translate(12.88 17.11) rotate(-39.35)">c</text><text class="cls-3" transform="matrix(0.66, -0.75, 0.75, 0.66, 13.01, 17)">u</text><text class="cls-3" transform="translate(13.13 16.85) rotate(-57.34)">s</text><text class="cls-3" transform="translate(13.21 16.72) rotate(-65.17)">i</text><text class="cls-1" transform="translate(12.84 18.58) rotate(-115.5)">D</text><text class="cls-1" transform="translate(12.75 18.39) rotate(-109.13)">e</text><text class="cls-1" transform="matrix(-0.24, -0.97, 0.97, -0.24, 12.7, 18.25)">r</text><text class="cls-1" transform="translate(12.66 18.09) rotate(-95.68)">m</text><text class="cls-1" transform="translate(12.64 17.85) rotate(-80.09)">o</text><text class="cls-3" transform="matrix(0.99, 0.11, -0.11, 0.99, 10.19, 17.83)">G</text><text class="cls-3" transform="translate(10.37 17.86) rotate(10.71)">E</text><text class="cls-3" transform="translate(10.5 17.88) rotate(14.71)">O</text><text class="cls-3" transform="matrix(0.95, 0.32, -0.32, 0.95, 10.66, 17.92)">R</text><text class="cls-3" transform="translate(10.8 17.97) rotate(23.09)">G</text><text class="cls-3" transform="translate(10.95 18.04) rotate(26.49)">I</text><text class="cls-3" transform="translate(11.04 18.08) rotate(29.89)">A</text><text class="cls-1" transform="translate(10.25 17.3) rotate(-114.39)">F</text><text class="cls-1" transform="translate(10.2 17.18) rotate(-111.89)">i</text><text class="cls-1" transform="matrix(-0.32, -0.95, 0.95, -0.32, 10.15, 17.07)">r</text><text class="cls-1" transform="translate(10.09 16.88) rotate(-103.72)">m</text><text class="cls-1" transform="matrix(-0.15, -0.99, 0.99, -0.15, 10.04, 16.66)">n</text><text class="cls-1" transform="matrix(-0.09, -1, 1, -0.09, 10.01, 16.47)">i</text><text class="cls-1" transform="translate(10 16.35) rotate(-91.01)">o</text><text class="cls-1" transform="matrix(0.97, -0.22, 0.22, 0.97, 9.25, 17.75)">V</text><text class="cls-1" transform="translate(9.45 17.71) rotate(-1.36)">e</text><text class="cls-1" transform="translate(9.63 17.71) rotate(9.77)">r</text><text class="cls-1" transform="translate(9.82 17.75) rotate(20.86)">t</text><text class="cls-1" transform="translate(9.99 17.82) rotate(30.61)">i</text><text class="cls-1" transform="translate(8.86 16.08) rotate(67.94)">U</text><text class="cls-1" transform="translate(8.94 16.28) rotate(65.96)">m</text><text class="cls-1" transform="translate(9.04 16.48) rotate(62.49)">e</text><text class="cls-1" transform="translate(9.1 16.61) rotate(58.76)">l</text><text class="cls-1" transform="matrix(0.6, 0.8, -0.8, 0.6, 9.17, 16.73)">o</text><text class="cls-1" transform="translate(9.3 16.89) rotate(45.79)">r</text><text class="cls-1" transform="translate(9.41 17) rotate(38.61)">a</text><text class="cls-4" transform="matrix(0.75, 0.67, -0.67, 0.75, 7.91, 16.4)">s</text><text class="cls-4" transform="matrix(0.8, 0.6, -0.6, 0.8, 8, 16.48)">k</text><text class="cls-4" transform="matrix(0.83, 0.55, -0.55, 0.83, 8.1, 16.55)">i</text><text class="cls-4" transform="translate(8.17 16.6) rotate(29.88)">l</text><text class="cls-4" transform="translate(8.26 16.65) rotate(26.35)">a</text><text class="cls-4" transform="translate(8.37 16.7) rotate(21.83)">t</text><text class="cls-4" transform="translate(8.48 16.75) rotate(17.02)">o</text><text class="cls-4" transform="translate(8.62 16.79) rotate(12.61)">r</text><text class="cls-4" transform="translate(8.73 16.81) rotate(8.99)">f</text><rect class="cls-5" width="20" height="20"/></svg>