<svg id="territory-labels" xmlns="http://www.w3.org/2000/svg" viewBox="0 0 5.93 4.59"><defs><style>.cls-1{font-size:0.2px;}.cls-1,.cls-2,.cls-3,.cls-4{font-family:TrajanPro-Bold, Trajan Pro;font-weight:700;}.cls-2{font-size:0.2px;}.cls-3{font-size:0.17px;}.cls-4{font-size:0.15px;}</style></defs><text class="cls-1" transform="matrix(0.97, 0.23, -0.23, 0.97, 0.44, 3.45)">T</text><text class="cls-1" transform="matrix(1, 0.04, -0.04, 1, 0.61, 3.49)">o</text><text class="cls-1" transform="matrix(0.99, -0.12, 0.12, 0.99, 0.78, 3.5)">r</text><text class="cls-1" transform="translate(0.94 3.47) rotate(-13.9)">i</text><text class="cls-1" transform="matrix(0.94, -0.33, 0.33, 0.94, 1.01, 3.46)">l</text><text class="cls-1" transform="translate(1.13 3.41) rotate(-26.51)">l</text><text class="cls-1" transform="translate(1.25 3.36) rotate(-36.03)">o</text><text class="cls-1" transform="translate(4.89 3.52) rotate(20.93)">g</text><text class="cls-1" transform="translate(5.11 3.59) rotate(11.66)">i</text><text class="cls-1" transform="translate(5.23 3.62) rotate(5.81)">s</text><text class="cls-1" transform="matrix(1, -0.06, 0.06, 1, 5.4, 3.63)">c</text><text class="cls-1" transform="translate(5.61 3.61) rotate(-11.97)">a</text><text class="cls-1" transform="translate(5.79 3.57) rotate(-21.08)">r</text><text class="cls-2" transform="translate(2.76 2.32) rotate(-42.59)">V</text><text class="cls-2" transform="matrix(0.65, -0.76, 0.76, 0.65, 2.88, 2.2)">I</text><text class="cls-2" transform="translate(2.94 2.12) rotate(-55.08)">S</text><text class="cls-2" transform="translate(3.04 1.99) rotate(-64.14)">C</text><text class="cls-2" transform="translate(3.11 1.83) rotate(-73.5)">O</text><text class="cls-2" transform="translate(3.17 1.63) rotate(-83.18)">T</text><text class="cls-2" transform="translate(3.19 1.47) rotate(-92.27)">H</text><text class="cls-2" transform="translate(3.17 1.26) rotate(-101.44)">A</text><text class="cls-2" transform="matrix(-0.33, -0.94, 0.94, -0.33, 3.14, 1.09)">L</text><text class="cls-2" transform="matrix(0.79, 0.61, -0.61, 0.79, 3.41, 1.26)">t</text><text class="cls-2" transform="matrix(0.73, 0.69, -0.69, 0.73, 3.55, 1.37)">e</text><text class="cls-2" transform="translate(3.68 1.49) rotate(48.53)">r</text><text class="cls-2" transform="matrix(0.59, 0.81, -0.81, 0.59, 3.79, 1.63)">i</text><text class="cls-2" transform="translate(3.87 1.74) rotate(61.79)">s</text><text class="cls-2" transform="translate(3.93 1.85) rotate(73.14)">y</text><text class="cls-1" transform="translate(2.97 0.16) rotate(18.03)">t</text><text class="cls-1" transform="translate(3.15 0.22) rotate(21.8)">e</text><text class="cls-1" transform="matrix(0.9, 0.43, -0.43, 0.9, 3.29, 0.29)">p</text><text class="cls-1" transform="translate(3.44 0.36) rotate(29.12)">o</text><text class="cls-1" transform="translate(3.64 0.47) rotate(33.66)">t</text><text class="cls-1" transform="translate(3.79 0.57) rotate(38.73)">h</text><text class="cls-1" transform="translate(3.97 0.72) rotate(44.35)">a</text><text class="cls-1" transform="matrix(0.64, 0.76, -0.76, 0.64, 4.1, 0.85)">l</text><text class="cls-1" transform="matrix(0.58, 0.82, -0.82, 0.58, 3.2, 2.32)">l</text><text class="cls-1" transform="translate(3.29 2.43) rotate(47.66)">o</text><text class="cls-1" transform="translate(3.45 2.6) rotate(39.39)">r</text><text class="cls-1" transform="translate(3.6 2.72) rotate(33.39)">e</text><text class="cls-1" transform="translate(3.73 2.8) rotate(26.98)">m</text><text class="cls-1" transform="translate(3.96 2.91) rotate(20.84)">i</text><text class="cls-1" transform="translate(4.08 2.96) rotate(16.15)">a</text><text class="cls-3" transform="translate(3.82 2.28) rotate(25.19)">i</text><text class="cls-3" transform="translate(3.93 2.33) rotate(17.14)">p</text><text class="cls-3" transform="translate(4.06 2.37) rotate(8.93)">s</text><text class="cls-3" transform="translate(4.2 2.39) rotate(-1.51)">u</text><text class="cls-3" transform="translate(4.38 2.38) rotate(-13.75)">m</text><text class="cls-3" transform="matrix(0.9, -0.44, 0.44, 0.9, 4.58, 2.32)">u</text><text class="cls-3" transform="matrix(0.83, -0.56, 0.56, 0.83, 4.72, 2.26)">s</text><text class="cls-1" transform="translate(2.62 2.72) rotate(57.8)">s</text><text class="cls-1" transform="translate(2.71 2.85) rotate(49.27)">e</text><text class="cls-1" transform="matrix(0.77, 0.64, -0.64, 0.77, 2.83, 2.98)">v</text><text class="cls-1" transform="translate(2.97 3.09) rotate(30.65)">a</text><text class="cls-1" transform="translate(3.12 3.18) rotate(21.6)">r</text><text class="cls-1" transform="matrix(0.97, 0.23, -0.23, 0.97, 3.29, 3.25)">o</text><text class="cls-4" transform="translate(3.78 3.16) rotate(89.3)">F</text><text class="cls-4" transform="matrix(0.16, 0.99, -0.99, 0.16, 3.78, 3.26)">l</text><text class="cls-4" transform="translate(3.8 3.37) rotate(72.01)">o</text><text class="cls-4" transform="translate(3.85 3.51) rotate(64.63)">r</text><text class="cls-4" transform="matrix(0.53, 0.85, -0.85, 0.53, 3.9, 3.63)">d</text><text class="cls-4" transform="translate(3.99 3.76) rotate(51.04)">a</text><text class="cls-4" transform="matrix(0.7, 0.71, -0.71, 0.7, 4.06, 3.84)">v</text><text class="cls-4" transform="matrix(0.77, 0.64, -0.64, 0.77, 4.14, 3.92)">i</text><text class="cls-4" transform="matrix(0.84, 0.54, -0.54, 0.84, 4.21, 3.98)">a</text><text class="cls-3" transform="translate(4.55 3.23) rotate(-13.99)">T</text><text class="cls-3" transform="translate(4.71 3.18) rotate(-23.31)">o</text><text class="cls-3" transform="translate(4.89 3.1) rotate(-32.4)">s</text><text class="cls-3" transform="translate(5 3.03) rotate(-39.35)">c</text><text class="cls-3" transform="matrix(0.66, -0.75, 0.75, 0.66, 5.12, 2.92)">u</text><text class="cls-3" transform="translate(5.25 2.78) rotate(-57.34)">s</text><text class="cls-3" transform="translate(5.32 2.64) rotate(-65.17)">i</text><text class="cls-1" transform="translate(4.96 4.51) rotate(-115.5)">D</text><text class="cls-1" transform="translate(4.87 4.31) rotate(-109.13)">e</text><text class="cls-1" transform="matrix(-0.24, -0.97, 0.97, -0.24, 4.82, 4.17)">r</text><text class="cls-1" transform="translate(4.78 4.01) rotate(-95.68)">m</text><text class="cls-1" transform="translate(4.76 3.77) rotate(-80.09)">o</text><text class="cls-3" transform="matrix(0.99, 0.11, -0.11, 0.99, 2.31, 3.76)">G</text><text class="cls-3" transform="translate(2.49 3.78) rotate(10.71)">E</text><text class="cls-3" transform="translate(2.62 3.8) rotate(14.71)">O</text><text class="cls-3" transform="matrix(0.95, 0.32, -0.32, 0.95, 2.78, 3.85)">R</text><text class="cls-3" transform="translate(2.92 3.89) rotate(23.09)">G</text><text class="cls-3" transform="translate(3.07 3.96) rotate(26.49)">I</text><text class="cls-3" transform="translate(3.16 4) rotate(29.89)">A</text><text class="cls-1" transform="translate(2.37 3.22) rotate(-114.39)">F</text><text class="cls-1" transform="translate(2.32 3.1) rotate(-111.89)">i</text><text class="cls-1" transform="matrix(-0.32, -0.95, 0.95, -0.32, 2.27, 2.99)">r</text><text class="cls-1" transform="translate(2.21 2.81) rotate(-103.72)">m</text><text class="cls-1" transform="matrix(-0.15, -0.99, 0.99, -0.15, 2.16, 2.58)">n</text><text class="cls-1" transform="matrix(-0.09, -1, 1, -0.09, 2.13, 2.4)">i</text><text class="cls-1" transform="translate(2.12 2.27) rotate(-91.01)">o</text><text class="cls-1" transform="matrix(0.97, -0.22, 0.22, 0.97, 1.37, 3.67)">V</text><text class="cls-1" transform="translate(1.57 3.63) rotate(-1.36)">e</text><text class="cls-1" transform="translate(1.75 3.63) rotate(9.77)">r</text><text class="cls-1" transform="translate(1.94 3.67) rotate(20.86)">t</text><text class="cls-1" transform="translate(2.11 3.75) rotate(30.61)">i</text><text class="cls-1" transform="translate(0.98 2) rotate(67.94)">U</text><text class="cls-1" transform="translate(1.06 2.2) rotate(65.96)">m</text><text class="cls-1" transform="translate(1.16 2.41) rotate(62.49)">e</text><text class="cls-1" transform="translate(1.22 2.53) rotate(58.76)">l</text><text class="cls-1" transform="matrix(0.6, 0.8, -0.8, 0.6, 1.29, 2.65)">o</text><text class="cls-1" transform="translate(1.42 2.81) rotate(45.79)">r</text><text class="cls-1" transform="translate(1.53 2.92) rotate(38.61)">a</text><text class="cls-4" transform="matrix(0.75, 0.67, -0.67, 0.75, 0.03, 2.32)">s</text><text class="cls-4" transform="matrix(0.8, 0.6, -0.6, 0.8, 0.12, 2.4)">k</text><text class="cls-4" transform="matrix(0.83, 0.55, -0.55, 0.83, 0.22, 2.48)">i</text><text class="cls-4" transform="translate(0.29 2.52) rotate(29.88)">l</text><text class="cls-4" transform="translate(0.37 2.57) rotate(26.35)">a</text><text class="cls-4" transform="translate(0.49 2.63) rotate(21.83)">t</text><text class="cls-4" transform="translate(0.6 2.67) rotate(17.02)">o</text><text class="cls-4" transform="translate(0.74 2.71) rotate(12.61)">r</text><text class="cls-4" transform="translate(0.84 2.73) rotate(8.99)">f</text></svg>