<?xml version="1.0" encoding="UTF-8" standalone="no"?>
<!DOCTYPE svg PUBLIC "-//W3C//DTD SVG 1.1//EN" "http://www.w3.org/Graphics/SVG/1.1/DTD/svg11.dtd">
<svg version="1.1" xmlns="http://www.w3.org/2000/svg" xmlns:xlink="http://www.w3.org/1999/xlink" preserveAspectRatio="xMidYMid meet" viewBox="0 0 640 108.2" width="640" height="108.2"><defs><path d="M59.98 11.3L580.07 11.3L580.07 96.9L59.98 96.9L59.98 11.3Z" id="c1EXo4pgI"></path><path d="M593.87 0L580.07 11.3L580.07 96.9L593.92 108.2L593.87 0Z" id="bfr0ZF2JY"></path><path d="M593.87 0L580.07 11.3L59.98 11.3L46.13 0L593.87 0Z" id="a2CxbavnS6"></path><path d="M59.98 11.3L46.13 0L46.13 108.2L59.98 96.9L59.98 11.3Z" id="cO1qU6k1n"></path><path d="M46.13 108.2L59.98 96.9L580.07 96.9L593.92 108.2L46.13 108.2Z" id="a1PcX19Qi8"></path><path d="M593.87 89.79L639.96 54.1L593.87 54.1L593.87 89.79Z" id="a1wzvnI5CG"></path><path d="M593.87 18.41L639.96 54.1L593.87 54.1L593.87 18.41Z" id="b4ncDwo9I3"></path><path d="M46.13 89.79L0 54.1L46.09 54.1L46.13 89.79Z" id="d3INXFLJLi"></path><path d="M46.13 18.41L0 54.1L46.09 54.1L46.13 18.41Z" id="b1DE0GhDn4"></path></defs><g><g><g><use xlink:href="#c1EXo4pgI" opacity="1" fill="#8f8f8f" fill-opacity="1"></use><g><use xlink:href="#c1EXo4pgI" opacity="1" fill-opacity="0" stroke="#000000" stroke-width="1" stroke-opacity="0"></use></g><g><filter id="shadow11293153" x="-14.35" y="-63.03" width="668.76" height="234.26" filterUnits="userSpaceOnUse" primitiveUnits="userSpaceOnUse"><feFlood></feFlood><feComposite in2="SourceAlpha" operator="out"></feComposite><feGaussianBlur stdDeviation="5.42"></feGaussianBlur><feOffset dx="0" dy="0" result="afterOffset"></feOffset><feFlood flood-color="#000000" flood-opacity="0.5"></feFlood><feComposite in2="afterOffset" operator="in"></feComposite><feMorphology operator="dilate" radius="10.67"></feMorphology><feComposite in2="SourceAlpha" operator="in"></feComposite></filter><path d="M59.98 11.3L580.07 11.3L580.07 96.9L59.98 96.9L59.98 11.3Z" id="drt7jmPZf" fill="white" fill-opacity="1" filter="url(#shadow11293153)"></path></g></g><g><use xlink:href="#bfr0ZF2JY" opacity="1" fill="#d4d4d4" fill-opacity="1"></use><g><use xlink:href="#bfr0ZF2JY" opacity="1" fill-opacity="0" stroke="#000000" stroke-width="1" stroke-opacity="0"></use></g></g><g><use xlink:href="#a2CxbavnS6" opacity="1" fill="#eaeaea" fill-opacity="1"></use><g><use xlink:href="#a2CxbavnS6" opacity="1" fill-opacity="0" stroke="#000000" stroke-width="1" stroke-opacity="0"></use></g></g><g><use xlink:href="#cO1qU6k1n" opacity="1" fill="#bfbfbf" fill-opacity="1"></use><g><use xlink:href="#cO1qU6k1n" opacity="1" fill-opacity="0" stroke="#000000" stroke-width="1" stroke-opacity="0"></use></g></g><g><use xlink:href="#a1PcX19Qi8" opacity="1" fill="#9b9b9b" fill-opacity="1"></use><g><use xlink:href="#a1PcX19Qi8" opacity="1" fill-opacity="0" stroke="#000000" stroke-width="1" stroke-opacity="0"></use></g></g><g><use xlink:href="#a1wzvnI5CG" opacity="1" fill="#d4d4d4" fill-opacity="1"></use><g><use xlink:href="#a1wzvnI5CG" opacity="1" fill-opacity="0" stroke="#000000" stroke-width="1" stroke-opacity="0"></use></g></g><g><use xlink:href="#b4ncDwo9I3" opacity="1" fill="#eaeaea" fill-opacity="1"></use><g><use xlink:href="#b4ncDwo9I3" opacity="1" fill-opacity="0" stroke="#000000" stroke-width="1" stroke-opacity="0"></use></g></g><g><use xlink:href="#d3INXFLJLi" opacity="1" fill="#bfbfbf" fill-opacity="1"></use><g><use xlink:href="#d3INXFLJLi" opacity="1" fill-opacity="0" stroke="#000000" stroke-width="1" stroke-opacity="0"></use></g></g><g><use xlink:href="#b1DE0GhDn4" opacity="1" fill="#d4d4d4" fill-opacity="1"></use><g><use xlink:href="#b1DE0GhDn4" opacity="1" fill-opacity="0" stroke="#000000" stroke-width="1" stroke-opacity="0"></use></g></g></g></g></svg>