<svg xmlns="http://www.w3.org/2000/svg" viewBox="0 0 6.13 4.89"><defs><style>.cls-1{fill:none;stroke:#1a1a1a;stroke-miterlimit:10;stroke-width:0.01px;}</style></defs><g id="regions-Teviscovius"><polygon id="territories-Viscothal" class="cls-1" points="3.31 2.29 3.3 2.17 3.42 2.03 3.57 2.02 3.44 1.84 3.43 1.37 3.42 1.1 3.33 0.98 3.12 0.85 2.92 0.91 2.76 1.12 2.83 1.44 2.89 1.53 2.87 1.69 2.78 1.71 2.71 1.81 2.75 2.02 2.61 2.07 2.55 2.49 2.75 2.61 3.05 2.5 3.15 2.35 3.31 2.29"/><polygon id="territories-Loremia" class="cls-1" points="3.45 2.86 3.61 3.14 3.79 3.19 4.04 3.18 4.27 3.21 4.44 3.14 4.52 2.93 4.36 2.86 4.31 2.64 4.16 2.57 4.01 2.61 3.92 2.54 3.67 2.35 3.57 2.02 3.42 2.03 3.3 2.17 3.31 2.29 3.15 2.35 3.05 2.5 3.19 2.69 3.45 2.86"/><polygon id="territories-Tepothal" class="cls-1" points="4.21 1.12 4.48 1.08 4.59 0.91 4.49 0.64 4.35 0.42 4.08 0.41 3.82 0.26 3.68 0.26 3.54 0.18 3.45 0.06 3.34 0 3.23 0.03 3.14 0.03 2.92 0.1 2.84 0.26 3.08 0.33 3.17 0.47 3.5 0.73 3.64 0.92 3.78 1.18 4.09 1.08 4.21 1.12"/><polygon id="territories-Terisy" class="cls-1" points="4.23 2.14 4.36 1.99 4.3 1.73 4.2 1.46 4.16 1.27 4.21 1.12 4.09 1.08 3.78 1.18 3.65 1.21 3.54 1.1 3.42 1.1 3.44 1.84 3.57 2.02 3.67 2.35 4.04 2.14 4.23 2.14"/><polygon id="territories-Ipsumus" class="cls-1" points="4.16 2.57 4.31 2.64 4.36 2.86 4.52 2.93 4.63 2.82 4.83 2.92 4.83 2.68 4.98 2.31 4.88 2.12 4.86 1.89 4.77 1.73 4.59 1.75 4.59 2.06 4.36 1.99 4.23 2.14 4.04 2.14 3.67 2.35 4.01 2.61 4.16 2.57"/><polygon id="territories-Giscar" class="cls-1" points="5.97 3.44 5.89 3.29 5.92 3.12 5.93 2.88 5.81 2.86 5.71 2.91 5.7 3.1 5.59 3.25 5.47 3.1 5.35 3 5.24 3.08 5.17 3.4 4.92 3.49 4.79 3.58 4.79 3.58 5.06 3.74 5.17 4.02 5.49 4.05 5.63 4.25 5.92 3.83 6.1 3.77 6.13 3.6 5.97 3.44"/><polygon id="territories-Dermo" class="cls-1" points="4.79 3.58 4.79 3.58 4.65 3.69 4.54 4.01 4.45 4.14 4.3 4.27 4.27 4.42 4.48 4.51 4.54 4.71 4.66 4.66 4.83 4.7 4.92 4.85 5.12 4.69 5.28 4.42 5.28 4.28 5.21 4.27 5.07 4.18 5.17 4.02 5.06 3.74 4.79 3.58"/><polygon id="territories-Toscusi" class="cls-1" points="5.43 2.54 5.35 2.54 5.16 2.74 5.05 2.88 4.83 2.92 4.63 2.82 4.52 2.93 4.44 3.14 4.56 3.38 4.52 3.58 4.65 3.69 4.92 3.49 5.17 3.4 5.24 3.08 5.35 3 5.52 2.69 5.43 2.54"/><polygon id="territories-Flordavia" class="cls-1" points="4.56 3.38 4.44 3.14 4.27 3.21 4.04 3.18 3.79 3.19 3.67 3.48 3.4 3.52 3.4 3.71 3.61 3.85 4.09 4.25 4.3 4.27 4.45 4.14 4.54 4.01 4.65 3.69 4.52 3.58 4.56 3.38"/><polygon id="territories-Sevaro" class="cls-1" points="3.45 2.86 3.19 2.69 3.05 2.5 2.75 2.61 2.57 2.79 2.52 3.04 2.66 3.23 2.58 3.43 2.95 3.5 3.17 3.41 3.4 3.52 3.67 3.48 3.79 3.19 3.61 3.14 3.45 2.86"/></g><g id="regions-Skedromund"><polygon id="territories-Verti" class="cls-1" points="2.24 4.05 2.37 3.87 2.35 3.66 2.28 3.52 2.12 3.35 1.81 3.17 1.68 3.24 1.44 3.08 1.56 3.39 1.39 3.58 1.38 3.79 1.22 3.93 1.49 4.05 1.6 4.18 1.81 4.13 2.01 4.22 2.09 4.56 2.05 4.75 2.21 4.89 2.34 4.86 2.38 4.7 2.32 4.43 2.24 4.27 2.24 4.05"/><polygon id="territories-Georgia" class="cls-1" points="2.92 4.44 3.04 4.58 3.25 4.52 3.41 4.13 3.61 3.96 3.61 3.85 3.4 3.71 3.4 3.52 3.17 3.41 2.95 3.5 2.58 3.43 2.28 3.52 2.35 3.66 2.37 3.87 2.24 4.05 2.24 4.27 2.32 4.43 2.63 4.34 2.92 4.44"/><polygon id="territories-Umelora" class="cls-1" points="1.81 2.7 1.77 2.47 1.75 2.27 1.52 2.09 1.13 1.93 0.89 1.99 0.94 2.15 0.88 2.38 0.97 2.55 1.11 2.65 1.14 3.01 1.29 3.12 1.44 3.08 1.68 3.24 1.81 3.17 1.92 2.96 1.81 2.7"/><polygon id="territories-Firmnio" class="cls-1" points="2.28 3.52 2.58 3.43 2.66 3.23 2.52 3.04 2.57 2.79 2.75 2.61 2.55 2.49 2.41 2.27 2.39 2.1 2.26 2.05 2.01 2.16 1.86 2.14 1.75 2.27 1.77 2.47 1.81 2.7 1.92 2.96 1.81 3.17 2.12 3.35 2.28 3.52"/><polygon id="territories-Skilatorf" class="cls-1" points="0.88 2.93 1.14 3.01 1.11 2.65 0.97 2.55 0.88 2.38 0.94 2.15 0.89 1.99 0.81 1.99 0.75 2.02 0.57 1.99 0.4 2.09 0.32 2.26 0.13 2.29 0 2.31 0.06 2.46 0.35 2.77 0.37 2.98 0.47 3.2 0.76 3.11 0.88 2.93"/><polygon id="territories-Torillo" class="cls-1" points="0.43 3.46 0.51 3.68 0.68 3.72 0.7 3.97 0.87 4.16 0.97 4.05 1.22 3.93 1.38 3.79 1.39 3.58 1.56 3.39 1.44 3.08 1.29 3.12 1.14 3.01 0.88 2.93 0.76 3.11 0.47 3.2 0.52 3.31 0.43 3.46"/></g></svg>